<?xml version="1.0" encoding="UTF-8" standalone="no"?>
<!-- Created with Inkscape (http://www.inkscape.org/) -->

<svg
   width="112.72781mm"
   height="82.837547mm"
   viewBox="0 0 112.72781 82.837547"
   version="1.1"
   id="svg1"
   xml:space="preserve"
   inkscape:version="1.3 (0e150ed6c4, 2023-07-21)"
   sodipodi:docname="fungtoxins_logo_inkscape.svg"
   xmlns:inkscape="http://www.inkscape.org/namespaces/inkscape"
   xmlns:sodipodi="http://sodipodi.sourceforge.net/DTD/sodipodi-0.dtd"
   xmlns="http://www.w3.org/2000/svg"
   xmlns:svg="http://www.w3.org/2000/svg"><sodipodi:namedview
     id="namedview1"
     pagecolor="#ffffff"
     bordercolor="#000000"
     borderopacity="0.25"
     inkscape:showpageshadow="2"
     inkscape:pageopacity="0.0"
     inkscape:pagecheckerboard="0"
     inkscape:deskcolor="#d1d1d1"
     inkscape:document-units="mm"
     inkscape:zoom="1.6373878"
     inkscape:cx="341.70281"
     inkscape:cy="716.07961"
     inkscape:window-width="1920"
     inkscape:window-height="1137"
     inkscape:window-x="1912"
     inkscape:window-y="-8"
     inkscape:window-maximized="1"
     inkscape:current-layer="g4" /><defs
     id="defs1" /><g
     inkscape:label="Layer 1"
     inkscape:groupmode="layer"
     id="layer1"
     transform="translate(-71.591829,-135.14807)"><g
       inkscape:label="Layer 1"
       id="layer1-5"
       transform="matrix(0.16374106,0,0,0.16374106,84.578877,94.681996)"
       style="fill:#ffffff;stroke:#000000;stroke-width:12.2144;stroke-dasharray:none;stroke-opacity:1"><g
         id="g3"
         transform="matrix(0.96890242,0,0,0.96890242,-22.031658,13.768834)"><g
           id="g4"
           inkscape:export-filename="fungtoxins_logo_standard.svg"
           inkscape:export-xdpi="96"
           inkscape:export-ydpi="96"><text
             xml:space="preserve"
             style="font-weight:bold;font-size:117.067px;line-height:1.4;font-family:Gadugi;-inkscape-font-specification:'Gadugi Bold';text-align:justify;fill:#000000;fill-opacity:1;stroke:none;stroke-width:33.1843;stroke-dasharray:none;stroke-opacity:1"
             x="62.217316"
             y="217.11783"
             id="text3"
             transform="matrix(6.3032186,0,0,6.3032186,-510.38036,-611.01206)"><tspan
               sodipodi:role="line"
               id="tspan3"
               style="fill:#000000;fill-opacity:1;stroke:none;stroke-width:33.1843"
               x="62.217316"
               y="217.11783">F</tspan></text><g
             id="g5"
             transform="translate(0,6.1111727)"><path
               style="fill:#000000;fill-opacity:1;fill-rule:nonzero;stroke:#000000;stroke-width:18.3489;stroke-linecap:round;stroke-linejoin:round;stroke-miterlimit:4;stroke-dasharray:none;stroke-opacity:1"
               d="m 102.18377,412.77587 c 0,0 77.32757,-25.07907 133.1206,-32.10497 34.93838,-4.39973 53.73663,-7.72391 131.1174,-4.57713 77.38077,3.14678 -127.12092,27.28885 -127.12092,27.28885 0,0 -126.01152,17.11716 -137.11708,9.39325 z"
               id="path4272"
               inkscape:connector-curvature="0"
               sodipodi:nodetypes="csscc" /><path
               style="fill:#ffffff;fill-opacity:1;fill-rule:nonzero;stroke:#000000;stroke-width:19.6215;stroke-linecap:round;stroke-linejoin:round;stroke-miterlimit:4;stroke-dasharray:none;stroke-opacity:1"
               d="m 297.25515,710.97613 c -9.2144,-3.78837 38.83241,-220.57966 51.6884,-308.50516 14.56255,-99.59705 63.45197,-17.95338 63.45197,-17.95338 0,0 23.17067,154.61897 -27.80479,292.75014 -49.85701,135.10042 -87.33558,33.7084 -87.33558,33.7084 z"
               id="path3468"
               inkscape:connector-curvature="0"
               sodipodi:nodetypes="cscsc" /><path
               style="fill:#ffffff;fill-opacity:1;fill-rule:nonzero;stroke:#000000;stroke-width:18.3489;stroke-linecap:round;stroke-linejoin:round;stroke-miterlimit:4;stroke-dasharray:none;stroke-opacity:1"
               d="m 105.69159,412.15298 c 0,0 -12.413165,5.10637 -10.532383,-18.92358 1.880784,-24.02994 162.875753,-136.67029 270.080363,-140.87554 107.20459,-4.20524 263.68569,78.99844 276.47501,128.25982 12.78932,49.26139 -156.85725,-0.30037 -224.18926,-3.00374 -67.33202,-2.70337 -210.64764,-9.31161 -311.83373,34.54304 z"
               id="path4274"
               inkscape:connector-curvature="0" /></g></g></g></g></g></svg>
